<mxfile host="app.diagrams.net" modified="2020-11-18T19:57:53.185Z" agent="5.0 (X11; Linux x86_64) AppleWebKit/537.36 (KHTML, like Gecko) Chrome/85.0.4183.121 Safari/537.36" etag="g2zxrDUuC-EC0Rrb8x0D" version="13.10.0" type="github" pages="3">
  <diagram id="zfl0XRgrPOMuCRngt79s" name="p01">
    <mxGraphModel dx="1414" dy="709" grid="1" gridSize="10" guides="1" tooltips="1" connect="1" arrows="1" fold="1" page="1" pageScale="1" pageWidth="1169" pageHeight="827" math="0" shadow="0">
      <root>
        <mxCell id="0" />
        <mxCell id="1" parent="0" />
        <mxCell id="LT9e82t-GhSdNYLtuQBO-1" value="" style="endArrow=none;html=1;" parent="1" edge="1">
          <mxGeometry width="50" height="50" relative="1" as="geometry">
            <mxPoint x="40" y="640" as="sourcePoint" />
            <mxPoint x="1120" y="640" as="targetPoint" />
          </mxGeometry>
        </mxCell>
      </root>
    </mxGraphModel>
  </diagram>
  <diagram name="p02" id="f0FZQTW4jivjXJysrCkN">
    <mxGraphModel dx="1664" dy="834" grid="1" gridSize="10" guides="1" tooltips="1" connect="1" arrows="1" fold="1" page="1" pageScale="1" pageWidth="1169" pageHeight="827" math="0" shadow="0">
      <root>
        <mxCell id="Nrn61gGkXdABHrAvUJxP-0" />
        <mxCell id="Nrn61gGkXdABHrAvUJxP-1" parent="Nrn61gGkXdABHrAvUJxP-0" />
        <mxCell id="Nrn61gGkXdABHrAvUJxP-10" value="" style="endArrow=none;html=1;" edge="1" parent="Nrn61gGkXdABHrAvUJxP-1" source="Nrn61gGkXdABHrAvUJxP-3" target="Nrn61gGkXdABHrAvUJxP-8">
          <mxGeometry width="50" height="50" relative="1" as="geometry">
            <mxPoint x="344.999988772522" y="642.4925075261563" as="sourcePoint" />
            <mxPoint x="1120" y="640" as="targetPoint" />
          </mxGeometry>
        </mxCell>
        <mxCell id="Nrn61gGkXdABHrAvUJxP-2" value="" style="endArrow=none;html=1;" edge="1" parent="Nrn61gGkXdABHrAvUJxP-1" source="Nrn61gGkXdABHrAvUJxP-8">
          <mxGeometry width="50" height="50" relative="1" as="geometry">
            <mxPoint x="40" y="640" as="sourcePoint" />
            <mxPoint x="1120" y="640" as="targetPoint" />
          </mxGeometry>
        </mxCell>
        <mxCell id="Nrn61gGkXdABHrAvUJxP-3" value="" style="ellipse;whiteSpace=wrap;html=1;aspect=fixed;fillColor=#7EA6E0;" vertex="1" parent="Nrn61gGkXdABHrAvUJxP-1">
          <mxGeometry x="340" y="640" width="5" height="5" as="geometry" />
        </mxCell>
        <mxCell id="Nrn61gGkXdABHrAvUJxP-4" value="" style="endArrow=none;html=1;" edge="1" parent="Nrn61gGkXdABHrAvUJxP-1" target="Nrn61gGkXdABHrAvUJxP-3">
          <mxGeometry width="50" height="50" relative="1" as="geometry">
            <mxPoint x="40" y="640" as="sourcePoint" />
            <mxPoint x="1120" y="640" as="targetPoint" />
          </mxGeometry>
        </mxCell>
        <mxCell id="Nrn61gGkXdABHrAvUJxP-5" value="&lt;font style=&quot;font-size: 18px&quot;&gt;A&lt;/font&gt;" style="text;html=1;align=center;verticalAlign=middle;resizable=0;points=[];autosize=1;" vertex="1" parent="Nrn61gGkXdABHrAvUJxP-1">
          <mxGeometry x="315" y="650" width="30" height="20" as="geometry" />
        </mxCell>
        <mxCell id="Nrn61gGkXdABHrAvUJxP-6" value="" style="ellipse;whiteSpace=wrap;html=1;aspect=fixed;fillColor=#7EA6E0;" vertex="1" parent="Nrn61gGkXdABHrAvUJxP-1">
          <mxGeometry x="560" y="640" width="5" height="5" as="geometry" />
        </mxCell>
        <mxCell id="Nrn61gGkXdABHrAvUJxP-7" value="&lt;font style=&quot;font-size: 18px&quot;&gt;B&lt;/font&gt;" style="text;html=1;align=center;verticalAlign=middle;resizable=0;points=[];autosize=1;" vertex="1" parent="Nrn61gGkXdABHrAvUJxP-1">
          <mxGeometry x="535" y="650" width="30" height="20" as="geometry" />
        </mxCell>
        <mxCell id="Nrn61gGkXdABHrAvUJxP-9" value="&lt;font style=&quot;font-size: 18px&quot;&gt;C&lt;/font&gt;" style="text;html=1;align=center;verticalAlign=middle;resizable=0;points=[];autosize=1;" vertex="1" parent="Nrn61gGkXdABHrAvUJxP-1">
          <mxGeometry x="700" y="650" width="30" height="20" as="geometry" />
        </mxCell>
        <mxCell id="Nrn61gGkXdABHrAvUJxP-8" value="" style="ellipse;whiteSpace=wrap;html=1;aspect=fixed;fillColor=#7EA6E0;" vertex="1" parent="Nrn61gGkXdABHrAvUJxP-1">
          <mxGeometry x="730" y="640" width="5" height="5" as="geometry" />
        </mxCell>
        <mxCell id="Nrn61gGkXdABHrAvUJxP-11" value="" style="ellipse;whiteSpace=wrap;html=1;aspect=fixed;fillColor=#7EA6E0;" vertex="1" parent="Nrn61gGkXdABHrAvUJxP-1">
          <mxGeometry x="215" y="640" width="5" height="5" as="geometry" />
        </mxCell>
        <mxCell id="Nrn61gGkXdABHrAvUJxP-12" value="&lt;font style=&quot;font-size: 18px&quot;&gt;D&lt;/font&gt;" style="text;html=1;align=center;verticalAlign=middle;resizable=0;points=[];autosize=1;" vertex="1" parent="Nrn61gGkXdABHrAvUJxP-1">
          <mxGeometry x="190" y="650" width="30" height="20" as="geometry" />
        </mxCell>
      </root>
    </mxGraphModel>
  </diagram>
  <diagram name="p03" id="SjjCYTmnPiGwn0urgwzh">
    <mxGraphModel dx="1414" dy="709" grid="1" gridSize="10" guides="1" tooltips="1" connect="1" arrows="1" fold="1" page="1" pageScale="1" pageWidth="1169" pageHeight="827" math="0" shadow="0">
      <root>
        <mxCell id="TDBYUhojHXfIIhbp1Vpv-0" />
        <mxCell id="TDBYUhojHXfIIhbp1Vpv-1" parent="TDBYUhojHXfIIhbp1Vpv-0" />
        <mxCell id="TDBYUhojHXfIIhbp1Vpv-2" value="" style="endArrow=none;html=1;" edge="1" parent="TDBYUhojHXfIIhbp1Vpv-1" source="TDBYUhojHXfIIhbp1Vpv-4" target="TDBYUhojHXfIIhbp1Vpv-10">
          <mxGeometry width="50" height="50" relative="1" as="geometry">
            <mxPoint x="344.999988772522" y="642.4925075261563" as="sourcePoint" />
            <mxPoint x="1120" y="640" as="targetPoint" />
          </mxGeometry>
        </mxCell>
        <mxCell id="TDBYUhojHXfIIhbp1Vpv-3" value="" style="endArrow=none;html=1;" edge="1" parent="TDBYUhojHXfIIhbp1Vpv-1" source="TDBYUhojHXfIIhbp1Vpv-10">
          <mxGeometry width="50" height="50" relative="1" as="geometry">
            <mxPoint x="40" y="640" as="sourcePoint" />
            <mxPoint x="1120" y="640" as="targetPoint" />
          </mxGeometry>
        </mxCell>
        <mxCell id="TDBYUhojHXfIIhbp1Vpv-4" value="" style="ellipse;whiteSpace=wrap;html=1;aspect=fixed;fillColor=#7EA6E0;" vertex="1" parent="TDBYUhojHXfIIhbp1Vpv-1">
          <mxGeometry x="340" y="640" width="5" height="5" as="geometry" />
        </mxCell>
        <mxCell id="TDBYUhojHXfIIhbp1Vpv-5" value="" style="endArrow=none;html=1;" edge="1" parent="TDBYUhojHXfIIhbp1Vpv-1" target="TDBYUhojHXfIIhbp1Vpv-4">
          <mxGeometry width="50" height="50" relative="1" as="geometry">
            <mxPoint x="40" y="640" as="sourcePoint" />
            <mxPoint x="1120" y="640" as="targetPoint" />
          </mxGeometry>
        </mxCell>
        <mxCell id="TDBYUhojHXfIIhbp1Vpv-6" value="&lt;font style=&quot;font-size: 18px&quot;&gt;A&lt;/font&gt;" style="text;html=1;align=center;verticalAlign=middle;resizable=0;points=[];autosize=1;" vertex="1" parent="TDBYUhojHXfIIhbp1Vpv-1">
          <mxGeometry x="315" y="650" width="30" height="20" as="geometry" />
        </mxCell>
        <mxCell id="TDBYUhojHXfIIhbp1Vpv-7" value="" style="ellipse;whiteSpace=wrap;html=1;aspect=fixed;fillColor=#7EA6E0;" vertex="1" parent="TDBYUhojHXfIIhbp1Vpv-1">
          <mxGeometry x="560" y="640" width="5" height="5" as="geometry" />
        </mxCell>
        <mxCell id="TDBYUhojHXfIIhbp1Vpv-8" value="&lt;font style=&quot;font-size: 18px&quot;&gt;B&lt;/font&gt;" style="text;html=1;align=center;verticalAlign=middle;resizable=0;points=[];autosize=1;" vertex="1" parent="TDBYUhojHXfIIhbp1Vpv-1">
          <mxGeometry x="535" y="650" width="30" height="20" as="geometry" />
        </mxCell>
        <mxCell id="TDBYUhojHXfIIhbp1Vpv-9" value="&lt;font style=&quot;font-size: 18px&quot;&gt;C&lt;/font&gt;" style="text;html=1;align=center;verticalAlign=middle;resizable=0;points=[];autosize=1;" vertex="1" parent="TDBYUhojHXfIIhbp1Vpv-1">
          <mxGeometry x="700" y="650" width="30" height="20" as="geometry" />
        </mxCell>
        <mxCell id="TDBYUhojHXfIIhbp1Vpv-10" value="" style="ellipse;whiteSpace=wrap;html=1;aspect=fixed;fillColor=#7EA6E0;" vertex="1" parent="TDBYUhojHXfIIhbp1Vpv-1">
          <mxGeometry x="730" y="640" width="5" height="5" as="geometry" />
        </mxCell>
        <mxCell id="TDBYUhojHXfIIhbp1Vpv-11" value="" style="ellipse;whiteSpace=wrap;html=1;aspect=fixed;fillColor=#7EA6E0;" vertex="1" parent="TDBYUhojHXfIIhbp1Vpv-1">
          <mxGeometry x="215" y="640" width="5" height="5" as="geometry" />
        </mxCell>
        <mxCell id="TDBYUhojHXfIIhbp1Vpv-12" value="&lt;font style=&quot;font-size: 18px&quot;&gt;D&lt;/font&gt;" style="text;html=1;align=center;verticalAlign=middle;resizable=0;points=[];autosize=1;" vertex="1" parent="TDBYUhojHXfIIhbp1Vpv-1">
          <mxGeometry x="190" y="650" width="30" height="20" as="geometry" />
        </mxCell>
      </root>
    </mxGraphModel>
  </diagram>
</mxfile>
